<svg width="16" height="16" viewBox="0 0 16 16" fill="none" xmlns="http://www.w3.org/2000/svg">
<g id="icon">
<path d="M15.3267 5.39061L13.9326 2.9785C13.8126 2.76895 13.622 2.6089 13.3948 2.52696C13.1677 2.44502 12.9188 2.44652 12.6926 2.5312L11.2826 3.0986C11.0662 2.95291 10.8403 2.82179 10.6064 2.7061L10.393 1.20121C10.3581 0.963374 10.2383 0.746198 10.0558 0.589753C9.87333 0.433309 9.6404 0.348155 9.40003 0.350005H6.60003C6.35994 0.349672 6.12786 0.436353 5.94678 0.593995C5.76569 0.751637 5.64787 0.96956 5.61513 1.20741L5.40273 2.70741C5.16935 2.82343 4.94381 2.95458 4.72753 3.1L3.30663 2.52831C3.08371 2.44272 2.83747 2.44002 2.61272 2.52068C2.38798 2.60134 2.19965 2.76 2.08203 2.9678L0.676327 5.40141C0.557062 5.60836 0.517247 5.85166 0.564324 6.08583C0.611402 6.32001 0.74215 6.52902 0.932127 6.67381L2.12003 7.60251C2.10783 7.73441 2.10003 7.86911 2.10003 8.00001C2.10003 8.13091 2.10493 8.2637 2.11513 8.3945L0.918927 9.3291C0.734282 9.47972 0.608499 9.69048 0.563598 9.92449C0.518697 10.1585 0.55754 10.4008 0.673327 10.6091L2.06743 13.0212C2.18744 13.2308 2.37806 13.3908 2.60522 13.4727C2.83238 13.5547 3.08128 13.5532 3.30743 13.4685L4.71743 12.9011C4.93364 13.0472 5.15956 13.1783 5.39363 13.2936L5.61283 14.83C5.65564 15.0605 5.77784 15.2687 5.95819 15.4185C6.13855 15.5683 6.36568 15.6502 6.60013 15.65H9.40003C9.64099 15.6535 9.87477 15.568 10.0565 15.4098C10.2383 15.2515 10.3552 15.0318 10.3849 14.7926L10.5973 13.2926C10.8307 13.1766 11.0563 13.0454 11.2726 12.9L12.6935 13.4713C12.9165 13.5567 13.1628 13.5593 13.3875 13.4785C13.6122 13.3978 13.8005 13.2391 13.9181 13.0313L15.3238 10.5977C15.443 10.3913 15.483 10.1486 15.4365 9.91487C15.3899 9.68113 15.26 9.47227 15.0709 9.3272L13.8863 8.39071C13.895 8.26371 13.9 8.13281 13.9 8.00001C13.9 7.86721 13.8951 7.73441 13.8854 7.60451L15.0812 6.67091C15.2659 6.52027 15.3917 6.30944 15.4366 6.07537C15.4815 5.84129 15.4426 5.59888 15.3267 5.39061ZM12.7974 6.80471C12.7057 6.8764 12.6349 6.97139 12.5924 7.07978C12.5499 7.18816 12.5372 7.30596 12.5557 7.42091C12.5858 7.61246 12.6006 7.8061 12.6 8.00001C12.5989 8.20213 12.5856 8.404 12.56 8.6045C12.5469 8.71502 12.5622 8.82706 12.6046 8.92997C12.647 9.03287 12.715 9.12322 12.8022 9.1924L14.06 10.1865L12.9189 12.1621L11.4272 11.5615C11.3231 11.5195 11.2099 11.5053 11.0987 11.5202C10.9874 11.5351 10.8819 11.5786 10.7925 11.6465C10.4752 11.8906 10.1273 12.0923 9.75783 12.2465C9.65256 12.2893 9.56039 12.359 9.49055 12.4486C9.42072 12.5383 9.37567 12.6447 9.35993 12.7572L9.13533 14.35H6.85643L6.63093 12.7572C6.61515 12.6447 6.57007 12.5383 6.50022 12.4486C6.43037 12.359 6.3382 12.2893 6.23293 12.2465C5.86355 12.094 5.51618 11.8928 5.20003 11.6484C5.11062 11.5798 5.00487 11.5357 4.89321 11.5205C4.78155 11.5052 4.66785 11.5194 4.56333 11.5615L3.07213 12.1631L1.93123 10.1885L3.20263 9.1953C3.29436 9.12361 3.36517 9.02862 3.40768 8.92023C3.45019 8.81185 3.46285 8.69405 3.44433 8.5791C3.38221 8.19468 3.38518 7.80254 3.45313 7.41911C3.4714 7.30462 3.45861 7.18733 3.41609 7.07947C3.37358 6.97161 3.3029 6.87714 3.21143 6.80591L1.94003 5.81251L3.08063 3.8379L4.57233 4.43851C4.67651 4.48007 4.78964 4.49408 4.90082 4.47919C5.01199 4.4643 5.11745 4.42102 5.20703 4.35351C5.52439 4.1094 5.87222 3.9077 6.24173 3.7535C6.34702 3.71081 6.43923 3.6412 6.50914 3.55164C6.57905 3.46207 6.62418 3.35571 6.64003 3.24321L6.86523 1.65001H9.14363L9.36913 3.24281C9.38491 3.35534 9.42998 3.46175 9.49983 3.55138C9.56968 3.64101 9.66186 3.71071 9.76713 3.7535C10.1365 3.90603 10.4839 4.10717 10.8 4.35161C10.8897 4.41962 10.9954 4.46335 11.107 4.47857C11.2185 4.4938 11.3321 4.48 11.4367 4.43851L12.9279 3.83691L14.069 5.81151L12.7974 6.80471ZM10.5 8.00001C10.5 8.49446 10.3534 8.97781 10.0787 9.38893C9.804 9.80005 9.41355 10.1205 8.95674 10.3097C8.49992 10.4989 7.99725 10.5484 7.5123 10.452C7.02735 10.3555 6.58189 10.1174 6.23226 9.76777C5.88263 9.41814 5.64453 8.97268 5.54806 8.48773C5.4516 8.00278 5.50111 7.50011 5.69033 7.0433C5.87955 6.58648 6.19998 6.19603 6.6111 5.92133C7.02222 5.64663 7.50557 5.50001 8.00003 5.50001C8.66307 5.50001 9.29895 5.7634 9.76779 6.23224C10.2366 6.70108 10.5 7.33696 10.5 8.00001Z" fill="currentColor"/>
</g>
</svg>
